{
  "accessors": [
    {
      "bufferView": 2,
      "componentType": 5126,
      "count": 388,
      "max": [
        0.043163355439901352,
        0.021963916718959808,
        0.07106761634349823
      ],
      "min": [
        -0.043163355439901352,
        0,
        -0.065847322344779968
      ],
      "type": "VEC3"
    },
    {
      "bufferView": 2,
      "byteOffset": 4656,
      "componentType": 5126,
      "count": 388,
      "max": [
        0.99968075752258301,
        1,
        0.95155465602874756
      ],
      "min": [
        -0.99968075752258301,
        -0.95155465602874756,
        -0.95155465602874756
      ],
      "type": "VEC3"
    },
    {
      "bufferView": 3,
      "componentType": 5126,
      "count": 388,
      "max": [
        1,
        0,
        -0,
        -1
      ],
      "min": [
        1,
        0,
        -0,
        -1
      ],
      "type": "VEC4"
    },
    {
      "bufferView": 1,
      "componentType": 5126,
      "count": 388,
      "max": [
        0,
        0
      ],
      "min": [
        0,
        0
      ],
      "type": "VEC2"
    },
    {
      "bufferView": 0,
      "componentType": 5125,
      "count": 1920,
      "max": [
        387
      ],
      "min": [
        0
      ],
      "type": "SCALAR"
    },
    {
      "bufferView": 2,
      "byteOffset": 9312,
      "componentType": 5126,
      "count": 46,
      "max": [
        0.037621088325977325,
        0.13506220281124115,
        -0.038098465651273727
      ],
      "min": [
        -0.037621088325977325,
        0.12379132211208344,
        -0.058252312242984772
      ],
      "type": "VEC3"
    },
    {
      "bufferView": 2,
      "byteOffset": 9864,
      "componentType": 5126,
      "count": 46,
      "max": [
        0.66331130266189575,
        1,
        0.9749295711517334
      ],
      "min": [
        -0.66331130266189575,
        -0.90096944570541382,
        -0.9749295711517334
      ],
      "type": "VEC3"
    },
    {
      "bufferView": 3,
      "byteOffset": 6208,
      "componentType": 5126,
      "count": 46,
      "max": [
        1,
        0,
        -0,
        -1
      ],
      "min": [
        1,
        0,
        -0,
        -1
      ],
      "type": "VEC4"
    },
    {
      "bufferView": 1,
      "byteOffset": 3104,
      "componentType": 5126,
      "count": 46,
      "max": [
        0,
        0
      ],
      "min": [
        0,
        0
      ],
      "type": "VEC2"
    },
    {
      "bufferView": 0,
      "byteOffset": 7680,
      "componentType": 5125,
      "count": 210,
      "max": [
        45
      ],
      "min": [
        0
      ],
      "type": "SCALAR"
    },
    {
      "bufferView": 2,
      "byteOffset": 10416,
      "componentType": 5126,
      "count": 1092,
      "max": [
        0.040129091590642929,
        0.12973533570766449,
        0.0737275630235672
      ],
      "min": [
        -0.040129095315933228,
        0.0025559291243553162,
        -0.063291393220424652
      ],
      "type": "VEC3"
    },
    {
      "bufferView": 2,
      "byteOffset": 23520,
      "componentType": 5126,
      "count": 1092,
      "max": [
        1,
        0.99998927116394043,
        1
      ],
      "min": [
        -1,
        -1,
        -0.9999995231628418
      ],
      "type": "VEC3"
    },
    {
      "bufferView": 3,
      "byteOffset": 6944,
      "componentType": 5126,
      "count": 1092,
      "max": [
        1,
        0.34792596101760864,
        -0,
        1
      ],
      "min": [
        -0.80294626951217651,
        -0.89048802852630615,
        -0.97796720266342163,
        -1
      ],
      "type": "VEC4"
    },
    {
      "bufferView": 1,
      "byteOffset": 3472,
      "componentType": 5126,
      "count": 1092,
      "max": [
        1,
        1
      ],
      "min": [
        0,
        0
      ],
      "type": "VEC2"
    },
    {
      "bufferView": 0,
      "byteOffset": 8520,
      "componentType": 5125,
      "count": 4530,
      "max": [
        1091
      ],
      "min": [
        0
      ],
      "type": "SCALAR"
    }
  ],
  "asset": {
    "extras": {
      "author": "AdrianXY (https://sketchfab.com/adrianxy)",
      "license": "CC-BY-4.0 (http://creativecommons.org/licenses/by/4.0/)",
      "source": "https://sketchfab.com/3d-models/shopping-cart-b96f896453b240ae804d0399f1faf027",
      "title": "Shopping Cart"
    },
    "generator": "Sketchfab-6.33.0",
    "version": "2.0"
  },
  "bufferViews": [
    {
      "buffer": 0,
      "byteLength": 26640,
      "byteOffset": 0,
      "name": "floatBufferViews",
      "target": 34963
    },
    {
      "buffer": 0,
      "byteLength": 12208,
      "byteOffset": 26640,
      "byteStride": 8,
      "name": "floatBufferViews",
      "target": 34962
    },
    {
      "buffer": 0,
      "byteLength": 36624,
      "byteOffset": 38848,
      "byteStride": 12,
      "name": "floatBufferViews",
      "target": 34962
    },
    {
      "buffer": 0,
      "byteLength": 24416,
      "byteOffset": 75472,
      "byteStride": 16,
      "name": "floatBufferViews",
      "target": 34962
    }
  ],
  "buffers": [
    {
      "byteLength": 99888,
      "uri": "scene.bin"
    }
  ],
  "materials": [
    {
      "doubleSided": true,
      "emissiveFactor": [
        0,
        0,
        0
      ],
      "name": "material",
      "pbrMetallicRoughness": {
        "baseColorFactor": [
          0.0080758600000000007,
          0.0080758600000000007,
          0.0080758600000000007,
          1
        ],
        "metallicFactor": 0,
        "roughnessFactor": 0.80833299999999997
      }
    },
    {
      "doubleSided": true,
      "name": "Griff",
      "pbrMetallicRoughness": {
        "baseColorFactor": [
          0.80000000000000004,
          0.246861,
          0.011359899999999999,
          1
        ],
        "metallicFactor": 0,
        "roughnessFactor": 0.78333299999999995
      }
    },
    {
      "doubleSided": true,
      "emissiveFactor": [
        0,
        0,
        0
      ],
      "name": "Chrome",
      "pbrMetallicRoughness": {
        "baseColorFactor": [
          0.80000000000000004,
          0.80000000000000004,
          0.80000000000000004,
          1
        ],
        "metallicFactor": 1,
        "roughnessFactor": 0.12548200000000001
      }
    }
  ],
  "meshes": [
    {
      "primitives": [
        {
          "attributes": {
            "NORMAL": 1,
            "POSITION": 0,
            "TANGENT": 2,
            "TEXCOORD_0": 3
          },
          "indices": 4,
          "material": 0,
          "mode": 4
        }
      ]
    },
    {
      "primitives": [
        {
          "attributes": {
            "NORMAL": 6,
            "POSITION": 5,
            "TANGENT": 7,
            "TEXCOORD_0": 8
          },
          "indices": 9,
          "material": 1,
          "mode": 4
        }
      ]
    },
    {
      "primitives": [
        {
          "attributes": {
            "NORMAL": 11,
            "POSITION": 10,
            "TANGENT": 12,
            "TEXCOORD_0": 13
          },
          "indices": 14,
          "material": 2,
          "mode": 4
        }
      ]
    }
  ],
  "nodes": [
    {
      "children": [
        1
      ],
      "name": "RootNode (gltf orientation matrix)",
      "rotation": [
        -0.70710678118654746,
        -0,
        -0,
        0.70710678118654757
      ]
    },
    {
      "children": [
        2
      ],
      "matrix": [
        1,
        -1.6081226229577292e-16,
        1.6081226229577292e-16,
        0,
        1.6081226229577292e-16,
        1,
        1.6081226229577292e-16,
        0,
        -1.6081226229577292e-16,
        -1.6081226229577292e-16,
        1,
        0,
        1.1494237094240856e-17,
        2.5153490401663703e-17,
        1.3877787807814457e-17,
        1
      ],
      "name": "RootNode (model correction matrix)"
    },
    {
      "children": [
        3
      ],
      "name": "root"
    },
    {
      "children": [
        4
      ],
      "matrix": [
        1,
        0,
        0,
        0,
        0,
        2.2204460492503131e-16,
        1,
        0,
        0,
        -1,
        2.2204460492503131e-16,
        0,
        0,
        0,
        0,
        1
      ],
      "name": "GLTF_SceneRootNode"
    },
    {
      "children": [
        5,
        6,
        7
      ],
      "name": "Einkaufswagen_0"
    },
    {
      "mesh": 0,
      "name": ""
    },
    {
      "mesh": 1,
      "name": ""
    },
    {
      "mesh": 2,
      "name": ""
    }
  ],
  "scene": 0,
  "scenes": [
    {
      "name": "OSG_Scene",
      "nodes": [
        0
      ]
    }
  ]
}

