{
  "accessors": [
    {
      "bufferView": 2,
      "componentType": 5126,
      "count": 491,
      "max": [
        0.51553398370742798,
        0.60438799858093262,
        6.2119889259338379
      ],
      "min": [
        -0.50341200828552246,
        -0.57663899660110474,
        -0.022244999185204506
      ],
      "type": "VEC3"
    },
    {
      "bufferView": 2,
      "byteOffset": 5892,
      "componentType": 5126,
      "count": 491,
      "max": [
        0.99999761581420898,
        0.99998176097869873,
        0.67589789628982544
      ],
      "min": [
        -0.99999904632568359,
        -0.99993216991424561,
        -0.74095326662063599
      ],
      "type": "VEC3"
    },
    {
      "bufferView": 3,
      "componentType": 5126,
      "count": 491,
      "max": [
        0.99998646974563599,
        0.99999713897705078,
        0.74637854099273682,
        1
      ],
      "min": [
        -0.9999469518661499,
        -0.9999997615814209,
        -0.74764442443847656,
        -1
      ],
      "type": "VEC4"
    },
    {
      "bufferView": 1,
      "componentType": 5126,
      "count": 491,
      "max": [
        1,
        1
      ],
      "min": [
        0,
        0.0099999997764825821
      ],
      "type": "VEC2"
    },
    {
      "bufferView": 0,
      "componentType": 5125,
      "count": 2580,
      "max": [
        490
      ],
      "min": [
        0
      ],
      "type": "SCALAR"
    },
    {
      "bufferView": 2,
      "byteOffset": 11784,
      "componentType": 5126,
      "count": 4,
      "max": [
        6.7263631820678711,
        6.7263631820678711,
        0
      ],
      "min": [
        -6.7263631820678711,
        -6.7263631820678711,
        0
      ],
      "type": "VEC3"
    },
    {
      "bufferView": 2,
      "byteOffset": 11832,
      "componentType": 5126,
      "count": 4,
      "max": [
        0,
        -0,
        1
      ],
      "min": [
        0,
        -0,
        1
      ],
      "type": "VEC3"
    },
    {
      "bufferView": 3,
      "byteOffset": 7856,
      "componentType": 5126,
      "count": 4,
      "max": [
        1,
        0,
        0,
        1
      ],
      "min": [
        1,
        0,
        0,
        1
      ],
      "type": "VEC4"
    },
    {
      "bufferView": 1,
      "byteOffset": 3928,
      "componentType": 5126,
      "count": 4,
      "max": [
        1,
        1
      ],
      "min": [
        0,
        0
      ],
      "type": "VEC2"
    },
    {
      "bufferView": 0,
      "byteOffset": 10320,
      "componentType": 5125,
      "count": 6,
      "max": [
        3
      ],
      "min": [
        0
      ],
      "type": "SCALAR"
    },
    {
      "bufferView": 2,
      "byteOffset": 11880,
      "componentType": 5126,
      "count": 14007,
      "max": [
        6.8770451545715332,
        6.9760990142822266,
        0.9724460244178772
      ],
      "min": [
        -6.8917098045349121,
        -6.7449860572814941,
        0.016199000179767609
      ],
      "type": "VEC3"
    },
    {
      "bufferView": 2,
      "byteOffset": 179964,
      "componentType": 5126,
      "count": 14007,
      "max": [
        0.7589343786239624,
        0.87873125076293945,
        1
      ],
      "min": [
        -0.7589343786239624,
        -0.44152000546455383,
        -0.47862166166305542
      ],
      "type": "VEC3"
    },
    {
      "bufferView": 3,
      "byteOffset": 7920,
      "componentType": 5126,
      "count": 14007,
      "max": [
        1,
        0.51459461450576782,
        0.8671448826789856,
        1
      ],
      "min": [
        -1,
        -0.5145910382270813,
        -0.8671448826789856,
        -1
      ],
      "type": "VEC4"
    },
    {
      "bufferView": 1,
      "byteOffset": 3960,
      "componentType": 5126,
      "count": 14007,
      "max": [
        0.95784598588943481,
        0.49000000953674316
      ],
      "min": [
        0.042153999209403992,
        0.12999999523162842
      ],
      "type": "VEC2"
    },
    {
      "bufferView": 0,
      "byteOffset": 10344,
      "componentType": 5125,
      "count": 24012,
      "max": [
        14006
      ],
      "min": [
        0
      ],
      "type": "SCALAR"
    },
    {
      "bufferView": 2,
      "byteOffset": 348048,
      "componentType": 5126,
      "count": 99,
      "max": [
        2.9123830795288086,
        2.7926769256591797,
        6.7303338050842285
      ],
      "min": [
        -2.7745029926300049,
        -2.7413930892944336,
        2.0829770565032959
      ],
      "type": "VEC3"
    },
    {
      "bufferView": 2,
      "byteOffset": 349236,
      "componentType": 5126,
      "count": 99,
      "max": [
        0.94023597240447998,
        0.94257575273513794,
        0.99998581409454346
      ],
      "min": [
        -0.93651419878005981,
        -0.96667677164077759,
        -0.56771945953369141
      ],
      "type": "VEC3"
    },
    {
      "bufferView": 3,
      "byteOffset": 232032,
      "componentType": 5126,
      "count": 99,
      "max": [
        0.99999958276748657,
        0.91652476787567139,
        0.93623524904251099,
        1
      ],
      "min": [
        -0.47899198532104492,
        -0.82022941112518311,
        -0.93583172559738159,
        -1
      ],
      "type": "VEC4"
    },
    {
      "bufferView": 1,
      "byteOffset": 116016,
      "componentType": 5126,
      "count": 99,
      "max": [
        0.99000000953674316,
        0.49000000953674316
      ],
      "min": [
        0.0099999997764825821,
        0.0099999997764825821
      ],
      "type": "VEC2"
    },
    {
      "bufferView": 0,
      "byteOffset": 106392,
      "componentType": 5125,
      "count": 270,
      "max": [
        98
      ],
      "min": [
        0
      ],
      "type": "SCALAR"
    }
  ],
  "asset": {
    "extras": {
      "author": "42yeah (https://sketchfab.com/42yeah)",
      "license": "CC-BY-4.0 (http://creativecommons.org/licenses/by/4.0/)",
      "source": "https://sketchfab.com/3d-models/christmas-tree-72554c4bf3484fa0a59bf689a5dbe852",
      "title": "Christmas Tree"
    },
    "generator": "Sketchfab-7.20.0",
    "version": "2.0"
  },
  "bufferViews": [
    {
      "buffer": 0,
      "byteLength": 107472,
      "byteOffset": 0,
      "name": "floatBufferViews",
      "target": 34963
    },
    {
      "buffer": 0,
      "byteLength": 116808,
      "byteOffset": 107472,
      "byteStride": 8,
      "name": "floatBufferViews",
      "target": 34962
    },
    {
      "buffer": 0,
      "byteLength": 350424,
      "byteOffset": 224280,
      "byteStride": 12,
      "name": "floatBufferViews",
      "target": 34962
    },
    {
      "buffer": 0,
      "byteLength": 233616,
      "byteOffset": 574704,
      "byteStride": 16,
      "name": "floatBufferViews",
      "target": 34962
    }
  ],
  "buffers": [
    {
      "byteLength": 808320,
      "uri": "scene.bin"
    }
  ],
  "images": [
    {
      "uri": "textures/Material.003_baseColor.png"
    }
  ],
  "materials": [
    {
      "doubleSided": true,
      "emissiveFactor": [
        0,
        0,
        0
      ],
      "name": "Material.001",
      "pbrMetallicRoughness": {
        "baseColorFactor": [
          0.114937,
          0.042918999999999999,
          0.017666999999999999,
          1
        ],
        "metallicFactor": 0,
        "roughnessFactor": 1
      }
    },
    {
      "doubleSided": true,
      "emissiveFactor": [
        0,
        0,
        0
      ],
      "name": "Material.002",
      "pbrMetallicRoughness": {
        "baseColorFactor": [
          0.014985999999999999,
          0.201904,
          0.022148000000000001,
          1
        ],
        "metallicFactor": 0,
        "roughnessFactor": 0.98377964480000002
      }
    },
    {
      "doubleSided": true,
      "emissiveFactor": [
        0,
        0,
        0
      ],
      "name": "Material.003",
      "pbrMetallicRoughness": {
        "baseColorFactor": [
          1,
          1,
          1,
          1
        ],
        "baseColorTexture": {
          "index": 0,
          "texCoord": 0
        },
        "metallicFactor": 0,
        "roughnessFactor": 1
      }
    },
    {
      "doubleSided": true,
      "emissiveFactor": [
        0,
        0,
        0
      ],
      "name": "Material.004",
      "pbrMetallicRoughness": {
        "baseColorFactor": [
          3.1000000000000001e-05,
          0.130082,
          0.0060749999999999997,
          1
        ],
        "metallicFactor": 0,
        "roughnessFactor": 1
      }
    }
  ],
  "meshes": [
    {
      "primitives": [
        {
          "attributes": {
            "NORMAL": 1,
            "POSITION": 0,
            "TANGENT": 2,
            "TEXCOORD_0": 3
          },
          "indices": 4,
          "material": 0,
          "mode": 4
        }
      ]
    },
    {
      "primitives": [
        {
          "attributes": {
            "NORMAL": 6,
            "POSITION": 5,
            "TANGENT": 7,
            "TEXCOORD_0": 8
          },
          "indices": 9,
          "material": 2,
          "mode": 4
        }
      ]
    },
    {
      "primitives": [
        {
          "attributes": {
            "NORMAL": 11,
            "POSITION": 10,
            "TANGENT": 12,
            "TEXCOORD_0": 13
          },
          "indices": 14,
          "material": 3,
          "mode": 4
        }
      ]
    },
    {
      "primitives": [
        {
          "attributes": {
            "NORMAL": 16,
            "POSITION": 15,
            "TANGENT": 17,
            "TEXCOORD_0": 18
          },
          "indices": 19,
          "material": 1,
          "mode": 4
        }
      ]
    }
  ],
  "nodes": [
    {
      "children": [
        1
      ],
      "name": "RootNode (gltf orientation matrix)",
      "rotation": [
        -0.70710678118654746,
        -0,
        -0,
        0.70710678118654757
      ]
    },
    {
      "children": [
        2
      ],
      "name": "RootNode (model correction matrix)"
    },
    {
      "children": [
        3,
        4,
        5,
        6
      ],
      "name": "Christmas.obj.cleaner.materialmerger.gles"
    },
    {
      "mesh": 0,
      "name": ""
    },
    {
      "mesh": 1,
      "name": ""
    },
    {
      "mesh": 2,
      "name": ""
    },
    {
      "mesh": 3,
      "name": ""
    }
  ],
  "samplers": [
    {
      "magFilter": 9729,
      "minFilter": 9987,
      "wrapS": 10497,
      "wrapT": 10497
    }
  ],
  "scene": 0,
  "scenes": [
    {
      "name": "OSG_Scene",
      "nodes": [
        0
      ]
    }
  ],
  "textures": [
    {
      "sampler": 0,
      "source": 0
    }
  ]
}

