{
  "accessors": [
    {
      "bufferView": 2,
      "componentType": 5126,
      "count": 2454,
      "max": [
        -2.2247610092163086,
        0.23648005723953247,
        3.3567848205566406
      ],
      "min": [
        -8.1017608642578125,
        0.2364799976348877,
        2.3862848281860352
      ],
      "type": "VEC3"
    },
    {
      "bufferView": 2,
      "byteOffset": 29448,
      "componentType": 5126,
      "count": 2454,
      "max": [
        2.2215942863113014e-06,
        -1,
        8.4605948359239846e-05
      ],
      "min": [
        -2.1701184778066818e-06,
        -1,
        -0.00025150907458737493
      ],
      "type": "VEC3"
    },
    {
      "bufferView": 3,
      "componentType": 5126,
      "count": 2454,
      "max": [
        1,
        7.9219553299481049e-06,
        1,
        1
      ],
      "min": [
        -1,
        -6.6228436480741948e-05,
        -1,
        -1
      ],
      "type": "VEC4"
    },
    {
      "bufferView": 0,
      "componentType": 5125,
      "count": 2454,
      "max": [
        2453
      ],
      "min": [
        0
      ],
      "type": "SCALAR"
    },
    {
      "bufferView": 2,
      "byteOffset": 58896,
      "componentType": 5126,
      "count": 25912,
      "max": [
        2.7282090187072754,
        4.1836323738098145,
        13.354864120483398
      ],
      "min": [
        -8.2625389099121094,
        -2.3973476886749268,
        -1.4726576805114746
      ],
      "type": "VEC3"
    },
    {
      "bufferView": 2,
      "byteOffset": 369840,
      "componentType": 5126,
      "count": 25912,
      "max": [
        1,
        1,
        1
      ],
      "min": [
        -1,
        -1,
        -1
      ],
      "type": "VEC3"
    },
    {
      "bufferView": 3,
      "byteOffset": 39264,
      "componentType": 5126,
      "count": 25912,
      "max": [
        1,
        1,
        1,
        1
      ],
      "min": [
        -1,
        -1,
        -1,
        -1
      ],
      "type": "VEC4"
    },
    {
      "bufferView": 1,
      "componentType": 5126,
      "count": 25912,
      "max": [
        0.99929970502853394,
        0.99929970502853394
      ],
      "min": [
        0.00070028012851253152,
        0.00070028012851253152
      ],
      "type": "VEC2"
    },
    {
      "bufferView": 0,
      "byteOffset": 9816,
      "componentType": 5125,
      "count": 36492,
      "max": [
        25911
      ],
      "min": [
        0
      ],
      "type": "SCALAR"
    }
  ],
  "asset": {
    "extras": {
      "author": "nenjo (https://sketchfab.com/nenjo)",
      "license": "CC-BY-4.0 (http://creativecommons.org/licenses/by/4.0/)",
      "source": "https://sketchfab.com/models/745a6b88712040c3a2f76da84be68f80",
      "title": "Low Poly Ristorante"
    },
    "generator": "Sketchfab-3.18.5",
    "version": "2.0"
  },
  "bufferViews": [
    {
      "buffer": 0,
      "byteLength": 155784,
      "byteOffset": 0,
      "name": "floatBufferViews",
      "target": 34963
    },
    {
      "buffer": 0,
      "byteLength": 207296,
      "byteOffset": 155784,
      "byteStride": 8,
      "name": "floatBufferViews",
      "target": 34962
    },
    {
      "buffer": 0,
      "byteLength": 680784,
      "byteOffset": 363080,
      "byteStride": 12,
      "name": "floatBufferViews",
      "target": 34962
    },
    {
      "buffer": 0,
      "byteLength": 453856,
      "byteOffset": 1043864,
      "byteStride": 16,
      "name": "floatBufferViews",
      "target": 34962
    }
  ],
  "buffers": [
    {
      "byteLength": 1497720,
      "uri": "scene.bin"
    }
  ],
  "images": [
    {
      "uri": "textures/bake_baseColor.jpeg"
    }
  ],
  "materials": [
    {
      "doubleSided": true,
      "emissiveFactor": [
        0,
        0,
        0
      ],
      "name": "mat.orangey",
      "pbrMetallicRoughness": {
        "baseColorFactor": [
          0.80000000000000004,
          0.086108299999999999,
          0.0224227,
          1
        ],
        "metallicFactor": 0,
        "roughnessFactor": 0.59999999999999998
      }
    },
    {
      "doubleSided": true,
      "emissiveFactor": [
        0,
        0,
        0
      ],
      "name": "bake",
      "pbrMetallicRoughness": {
        "baseColorFactor": [
          1,
          1,
          1,
          1
        ],
        "baseColorTexture": {
          "index": 0,
          "texCoord": 0
        },
        "metallicFactor": 0,
        "roughnessFactor": 1
      }
    }
  ],
  "meshes": [
    {
      "name": "Text_mat.orangey_0",
      "primitives": [
        {
          "attributes": {
            "NORMAL": 1,
            "POSITION": 0,
            "TANGENT": 2
          },
          "indices": 3,
          "material": 0,
          "mode": 4
        }
      ]
    },
    {
      "name": "Text_bake_0",
      "primitives": [
        {
          "attributes": {
            "NORMAL": 5,
            "POSITION": 4,
            "TANGENT": 6,
            "TEXCOORD_0": 7
          },
          "indices": 8,
          "material": 1,
          "mode": 4
        }
      ]
    }
  ],
  "nodes": [
    {
      "children": [
        1
      ],
      "name": "RootNode (gltf orientation matrix)",
      "rotation": [
        -0.70710678118654746,
        -0,
        -0,
        0.70710678118654757
      ]
    },
    {
      "children": [
        2
      ],
      "name": "RootNode (model correction matrix)"
    },
    {
      "children": [
        3
      ],
      "matrix": [
        1,
        0,
        0,
        0,
        0,
        0,
        1,
        0,
        0,
        -1,
        0,
        0,
        0,
        0,
        0,
        1
      ],
      "name": "0048ca89a348485387598ac78cfcad3a.fbx"
    },
    {
      "children": [
        4,
        7,
        10
      ],
      "name": "RootNode"
    },
    {
      "children": [
        5
      ],
      "matrix": [
        85.445213252950197,
        -51.953012734179957,
        2.1668805492425106e-13,
        0,
        51.953012734179808,
        85.445213252949941,
        -7.5497901264043304e-06,
        0,
        3.922343240625133e-06,
        6.4509343862323322e-06,
        99.999999999999716,
        0,
        -614.31109619140625,
        52.527366638183594,
        -218.09208679199219,
        1
      ],
      "name": "Sun.001"
    },
    {
      "children": [
        6
      ],
      "matrix": [
        1,
        0,
        0,
        0,
        0,
        2.2204460492503131e-16,
        1,
        0,
        0,
        -1,
        2.2204460492503131e-16,
        0,
        0,
        0,
        0,
        1
      ],
      "name": ""
    },
    {
      "name": ""
    },
    {
      "children": [
        8
      ],
      "matrix": [
        96.550106035184342,
        21.559743579882952,
        14.603183060056063,
        0,
        -25.231548660359671,
        63.592788384584075,
        72.933721580297657,
        0,
        6.4377520551830836,
        -74.102194760943391,
        66.83876180845364,
        0,
        -614.31109619140625,
        52.527366638183594,
        -218.09208679199219,
        1
      ],
      "name": "Sun"
    },
    {
      "children": [
        9
      ],
      "matrix": [
        1,
        0,
        0,
        0,
        0,
        2.2204460492503131e-16,
        1,
        0,
        0,
        -1,
        2.2204460492503131e-16,
        0,
        0,
        0,
        0,
        1
      ],
      "name": ""
    },
    {
      "name": ""
    },
    {
      "children": [
        11,
        12
      ],
      "matrix": [
        99.921184912927856,
        3.9692920927578546,
        0,
        0,
        1.7350328777865354e-07,
        -4.3676942285131304e-06,
        -99.999999999999915,
        0,
        -3.9692920927578506,
        99.921184912927785,
        -4.3711386728180365e-06,
        0,
        -536.6517333984375,
        -218.20207214355469,
        -146.63552856445312,
        1
      ],
      "name": "Text"
    },
    {
      "mesh": 0,
      "name": "Text_mat.orangey_0"
    },
    {
      "mesh": 1,
      "name": "Text_bake_0"
    }
  ],
  "samplers": [
    {
      "magFilter": 9729,
      "minFilter": 9987,
      "wrapS": 10497,
      "wrapT": 10497
    }
  ],
  "scene": 0,
  "scenes": [
    {
      "name": "OSG_Scene",
      "nodes": [
        0
      ]
    }
  ],
  "textures": [
    {
      "sampler": 0,
      "source": 0
    }
  ]
}

