{
	"accessors": [
		{
			"bufferView": 0,
			"byteOffset": 0,
			"componentType": 5126,
			"count": 140,
			"max": [
				15.74095344543457,
				1.0,
				8.862618446350098
			],
			"min": [
				-1.0,
				-7.82979154586792,
				-1.0
			],
			"type": "VEC3"
		},
		{
			"bufferView": 1,
			"byteOffset": 0,
			"componentType": 5126,
			"count": 140,
			"max": [
				1.0,
				1.0,
				1.0
			],
			"min": [
				-1.0,
				-1.0,
				-1.0
			],
			"type": "VEC3"
		},
		{
			"bufferView": 2,
			"byteOffset": 0,
			"componentType": 5126,
			"count": 140,
			"max": [
				0.875,
				1.0
			],
			"min": [
				0.125,
				0.0
			],
			"type": "VEC2"
		},
		{
			"bufferView": 3,
			"byteOffset": 0,
			"componentType": 5125,
			"count": 228,
			"max": [
				139.0
			],
			"min": [
				0.0
			],
			"type": "SCALAR"
		},
		{
			"bufferView": 4,
			"byteOffset": 0,
			"componentType": 5126,
			"count": 3972,
			"max": [
				1.0800769329071045,
				1.390608549118042,
				3.2011220455169678
			],
			"min": [
				-1.0979273319244385,
				-1.3698140382766724,
				-2.066422462463379
			],
			"type": "VEC3"
		},
		{
			"bufferView": 5,
			"byteOffset": 0,
			"componentType": 5126,
			"count": 3972,
			"max": [
				1.0,
				1.0,
				1.0
			],
			"min": [
				-1.0,
				-1.0,
				-1.0
			],
			"type": "VEC3"
		},
		{
			"bufferView": 6,
			"byteOffset": 0,
			"componentType": 5126,
			"count": 3972,
			"max": [
				0.8750000596046448,
				1.0
			],
			"min": [
				0.1249999925494194,
				-0.0008639735751785338
			],
			"type": "VEC2"
		},
		{
			"bufferView": 7,
			"byteOffset": 0,
			"componentType": 5125,
			"count": 6012,
			"max": [
				3971.0
			],
			"min": [
				0.0
			],
			"type": "SCALAR"
		}
	],
	"asset": {
		"generator": "Gestaltor 2020.2.1 Alpha 'Zuckerwatte' (CI-38fb8ee1*)",
		"version": "2.0"
	},
	"bufferViews": [
		{
			"buffer": 0,
			"byteLength": 1680,
			"byteOffset": 0,
			"byteStride": 12,
			"target": 34962
		},
		{
			"buffer": 0,
			"byteLength": 1680,
			"byteOffset": 1680,
			"byteStride": 12,
			"target": 34962
		},
		{
			"buffer": 0,
			"byteLength": 1120,
			"byteOffset": 3360,
			"byteStride": 8,
			"target": 34962
		},
		{
			"buffer": 0,
			"byteLength": 912,
			"byteOffset": 4480,
			"target": 34963
		},
		{
			"buffer": 0,
			"byteLength": 47664,
			"byteOffset": 5392,
			"byteStride": 12,
			"target": 34962
		},
		{
			"buffer": 0,
			"byteLength": 47664,
			"byteOffset": 53056,
			"byteStride": 12,
			"target": 34962
		},
		{
			"buffer": 0,
			"byteLength": 31776,
			"byteOffset": 100720,
			"byteStride": 8,
			"target": 34962
		},
		{
			"buffer": 0,
			"byteLength": 24048,
			"byteOffset": 132496,
			"target": 34963
		}
	],
	"buffers": [
		{
			"byteLength": 156544,
			"uri": "scene.bin"
		}
	],
	"materials": [
		{
			"doubleSided": true,
			"emissiveFactor": [
				0.0,
				0.0,
				0.0
			],
			"name": "Material",
			"pbrMetallicRoughness": {
				"baseColorFactor": [
					0.195989,
					0.0175967,
					0.0,
					1.0
				],
				"metallicFactor": 0.0,
				"roughnessFactor": 0.9867109250651468
			}
		},
		{
			"doubleSided": true,
			"emissiveFactor": [
				0.0,
				0.0,
				0.0
			],
			"name": "Material.001",
			"pbrMetallicRoughness": {
				"baseColorFactor": [
					0.8,
					0.346712,
					0.11348,
					1.0
				],
				"metallicFactor": 0.0,
				"roughnessFactor": 1.0
			}
		}
	],
	"meshes": [
		{
			"name": "Cube_Material_0",
			"primitives": [
				{
					"attributes": {
						"NORMAL": 1,
						"POSITION": 0,
						"TEXCOORD_0": 2
					},
					"indices": 3,
					"material": 0,
					"mode": 4
				}
			]
		},
		{
			"name": "Cube.001_Material.001_0",
			"primitives": [
				{
					"attributes": {
						"NORMAL": 5,
						"POSITION": 4,
						"TEXCOORD_0": 6
					},
					"indices": 7,
					"material": 1,
					"mode": 4
				}
			]
		}
	],
	"nodes": [
		{
			"children": [
				1
			],
			"name": "RootNode (gltf orientation matrix)",
			"rotation": [
				-0.7071067811865475,
				0.0,
				0.0,
				0.7071067811865476
			]
		},
		{
			"children": [
				2
			],
			"name": "RootNode (model correction matrix)"
		},
		{
			"children": [
				3
			],
			"matrix": [
				1.0,
				0.0,
				0.0,
				0.0,
				0.0,
				0.0,
				1.0,
				0.0,
				0.0,
				-1.0,
				0.0,
				0.0,
				0.0,
				0.0,
				0.0,
				1.0
			],
			"name": "19c725dcd2f34431a216e8e96366eb71.fbx"
		},
		{
			"children": [
				6,
				9
			],
			"name": "RootNode"
		},
		{
			"children": [
				5
			],
			"matrix": [
				100.0,
				0.0,
				0.0,
				0.0,
				0.0,
				-1.629206793918314e-05,
				-99.99999999999868,
				0.0,
				0.0,
				99.99999999999868,
				-1.629206793918314e-05,
				0.0,
				-500.0,
				0.0,
				-500.0,
				1.0
			],
			"name": "Cube"
		},
		{
			"mesh": 0,
			"name": "Cube_Material_0"
		},
		{
			"children": [
				7
			],
			"matrix": [
				-29.08647719990347,
				-5.518906457566863,
				-95.51711910171437,
				0.0,
				56.63930913109449,
				79.46723428563203,
				-21.83912397841966,
				0.0,
				77.11008775993375,
				-60.45246356562044,
				-19.98834696773717,
				0.0,
				407.6245422363281,
				590.38623046875,
				-100.54539489746094,
				1.0
			],
			"name": "Light"
		},
		{
			"children": [
				8
			],
			"matrix": [
				1.0,
				0.0,
				0.0,
				0.0,
				0.0,
				2.220446049250313e-16,
				1.0,
				0.0,
				0.0,
				-1.0,
				2.220446049250313e-16,
				0.0,
				0.0,
				0.0,
				0.0,
				1.0
			],
			"name": ""
		},
		{
			"name": ""
		},
		{
			"children": [
				10
			],
			"matrix": [
				854.9999389648438,
				0.0,
				0.0,
				0.0,
				0.0,
				-9.433107336787039e-05,
				-578.9999999999924,
				0.0,
				0.0,
				99.99999999999868,
				-1.629206793918314e-05,
				0.0,
				258.0,
				850.0001220703125,
				-152.0,
				1.0
			],
			"name": "Cube.001"
		},
		{
			"mesh": 1,
			"name": "Cube.001_Material.001_0"
		}
	],
	"scene": 0,
	"scenes": [
		{
			"name": "OSG_Scene",
			"nodes": [
				0
			]
		}
	]
}