{
  "accessors": [
    {
      "bufferView": 2,
      "componentType": 5126,
      "count": 3936,
      "max": [
        20.58392333984375,
        18.125,
        24.134851455688477
      ],
      "min": [
        -20.58392333984375,
        9.5367431640625e-07,
        -24.134853363037109
      ],
      "type": "VEC3"
    },
    {
      "bufferView": 2,
      "byteOffset": 47232,
      "componentType": 5126,
      "count": 3936,
      "max": [
        0.98646533489227295,
        0.99895268678665161,
        0.936229407787323
      ],
      "min": [
        -0.98646533489227295,
        -0.99895381927490234,
        -0.936229407787323
      ],
      "type": "VEC3"
    },
    {
      "bufferView": 3,
      "componentType": 5126,
      "count": 3936,
      "max": [
        0.99895387887954712,
        0.98646175861358643,
        1,
        -1
      ],
      "min": [
        -0.98264086246490479,
        -0.9750676155090332,
        -0.92706799507141113,
        -1
      ],
      "type": "VEC4"
    },
    {
      "bufferView": 1,
      "componentType": 5126,
      "count": 3936,
      "max": [
        0.9938388466835022,
        0.9938388466835022
      ],
      "min": [
        0.0061611533164978027,
        0.13489425182342529
      ],
      "type": "VEC2"
    },
    {
      "bufferView": 1,
      "byteOffset": 31488,
      "componentType": 5126,
      "count": 3936,
      "max": [
        0.9938388466835022,
        0.9938388466835022
      ],
      "min": [
        0.0061611533164978027,
        0.13489425182342529
      ],
      "type": "VEC2"
    },
    {
      "bufferView": 1,
      "byteOffset": 62976,
      "componentType": 5126,
      "count": 3936,
      "max": [
        0.9938388466835022,
        0.9938388466835022
      ],
      "min": [
        0.0061611533164978027,
        0.13489425182342529
      ],
      "type": "VEC2"
    },
    {
      "bufferView": 1,
      "byteOffset": 94464,
      "componentType": 5126,
      "count": 3936,
      "max": [
        0.9938388466835022,
        0.9938388466835022
      ],
      "min": [
        0.0061611533164978027,
        0.13489425182342529
      ],
      "type": "VEC2"
    },
    {
      "bufferView": 0,
      "componentType": 5125,
      "count": 5928,
      "max": [
        3935
      ],
      "min": [
        0
      ],
      "type": "SCALAR"
    }
  ],
  "asset": {
    "extras": {
      "author": "mozillareality (https://sketchfab.com/mozillareality)",
      "license": "CC-BY-4.0 (http://creativecommons.org/licenses/by/4.0/)",
      "source": "https://sketchfab.com/3d-models/tent-canopy-rectangular-256b7c9e92d54a49af295be120b5ec59",
      "title": "Tent Canopy - rectangular"
    },
    "generator": "Sketchfab-5.15.0",
    "version": "2.0"
  },
  "bufferViews": [
    {
      "buffer": 0,
      "byteLength": 23712,
      "byteOffset": 0,
      "name": "floatBufferViews",
      "target": 34963
    },
    {
      "buffer": 0,
      "byteLength": 125952,
      "byteOffset": 23712,
      "byteStride": 8,
      "name": "floatBufferViews",
      "target": 34962
    },
    {
      "buffer": 0,
      "byteLength": 94464,
      "byteOffset": 149664,
      "byteStride": 12,
      "name": "floatBufferViews",
      "target": 34962
    },
    {
      "buffer": 0,
      "byteLength": 62976,
      "byteOffset": 244128,
      "byteStride": 16,
      "name": "floatBufferViews",
      "target": 34962
    }
  ],
  "buffers": [
    {
      "byteLength": 307104,
      "uri": "scene.bin"
    }
  ],
  "images": [
    {
      "uri": "textures/TentCanopyMat_metallicRoughness.png"
    },
    {
      "uri": "textures/TentCanopyMat_normal.png"
    },
    {
      "uri": "textures/TentCanopyMat_baseColor.png"
    }
  ],
  "materials": [
    {
      "doubleSided": false,
      "name": "TentCanopyMat",
      "normalTexture": {
        "index": 1,
        "scale": 1,
        "texCoord": 0
      },
      "occlusionTexture": {
        "index": 0,
        "strength": 1,
        "texCoord": 0
      },
      "pbrMetallicRoughness": {
        "baseColorFactor": [
          1,
          1,
          1,
          1
        ],
        "baseColorTexture": {
          "index": 2,
          "texCoord": 0
        },
        "metallicFactor": 1,
        "metallicRoughnessTexture": {
          "index": 0,
          "texCoord": 0
        },
        "roughnessFactor": 1
      }
    }
  ],
  "meshes": [
    {
      "primitives": [
        {
          "attributes": {
            "NORMAL": 1,
            "POSITION": 0,
            "TANGENT": 2,
            "TEXCOORD_0": 3,
            "TEXCOORD_1": 4,
            "TEXCOORD_2": 5,
            "TEXCOORD_3": 6
          },
          "indices": 7,
          "material": 0,
          "mode": 4
        }
      ]
    }
  ],
  "nodes": [
    {
      "children": [
        1
      ],
      "name": "RootNode (gltf orientation matrix)",
      "rotation": [
        -0.70710678118654746,
        -0,
        -0,
        0.70710678118654757
      ]
    },
    {
      "children": [
        2
      ],
      "name": "RootNode (model correction matrix)"
    },
    {
      "children": [
        3
      ],
      "name": "root"
    },
    {
      "children": [
        4
      ],
      "matrix": [
        1,
        0,
        0,
        0,
        0,
        2.2204460492503131e-16,
        1,
        0,
        0,
        -1,
        2.2204460492503131e-16,
        0,
        0,
        0,
        0,
        1
      ],
      "name": "GLTF_SceneRootNode"
    },
    {
      "children": [
        5
      ],
      "name": "TentCanopy_0"
    },
    {
      "mesh": 0,
      "name": ""
    }
  ],
  "samplers": [
    {
      "magFilter": 9729,
      "minFilter": 9987,
      "wrapS": 10497,
      "wrapT": 10497
    }
  ],
  "scene": 0,
  "scenes": [
    {
      "name": "OSG_Scene",
      "nodes": [
        0
      ]
    }
  ],
  "textures": [
    {
      "sampler": 0,
      "source": 0
    },
    {
      "sampler": 0,
      "source": 1
    },
    {
      "sampler": 0,
      "source": 2
    }
  ]
}

