{
  "accessors": [
    {
      "bufferView": 2,
      "componentType": 5126,
      "count": 23,
      "max": [
        24.212610244750977,
        0.32508903741836548,
        14.79526424407959
      ],
      "min": [
        -24.212583541870117,
        -0.32507979869842529,
        14.773641586303711
      ],
      "type": "VEC3"
    },
    {
      "bufferView": 2,
      "byteOffset": 276,
      "componentType": 5126,
      "count": 23,
      "max": [
        3.0072232704014823e-08,
        0.11207281053066254,
        -0.99369996786117554
      ],
      "min": [
        -3.7449879641826556e-08,
        -0.11207287013530731,
        -1
      ],
      "type": "VEC3"
    },
    {
      "bufferView": 3,
      "componentType": 5126,
      "count": 23,
      "max": [
        1.7778396810275154e-10,
        -0.99369996786117554,
        0.11207287758588791,
        -1
      ],
      "min": [
        -1.0917158843604113e-10,
        -1,
        -0.11207280308008194,
        -1
      ],
      "type": "VEC4"
    },
    {
      "bufferView": 3,
      "byteOffset": 368,
      "componentType": 5126,
      "count": 23,
      "max": [
        1,
        1,
        1,
        1
      ],
      "min": [
        1,
        1,
        1,
        1
      ],
      "type": "VEC4"
    },
    {
      "bufferView": 1,
      "componentType": 5126,
      "count": 23,
      "max": [
        0.98214280605316162,
        0.99999994039535522
      ],
      "min": [
        -0.017857193946838379,
        0
      ],
      "type": "VEC2"
    },
    {
      "bufferView": 0,
      "componentType": 5125,
      "count": 36,
      "max": [
        22
      ],
      "min": [
        0
      ],
      "type": "SCALAR"
    },
    {
      "bufferView": 2,
      "byteOffset": 552,
      "componentType": 5126,
      "count": 6949,
      "max": [
        24.212606430053711,
        1.5585328340530396,
        44.414146423339844
      ],
      "min": [
        -24.212606430053711,
        -1.5585262775421143,
        14.69989013671875
      ],
      "type": "VEC3"
    },
    {
      "bufferView": 2,
      "byteOffset": 83940,
      "componentType": 5126,
      "count": 6949,
      "max": [
        1,
        1,
        1
      ],
      "min": [
        -1,
        -1,
        -1
      ],
      "type": "VEC3"
    },
    {
      "bufferView": 3,
      "byteOffset": 736,
      "componentType": 5126,
      "count": 6949,
      "max": [
        0.90411293506622314,
        1,
        1,
        1
      ],
      "min": [
        -0.90547794103622437,
        -1,
        -1,
        -1
      ],
      "type": "VEC4"
    },
    {
      "bufferView": 3,
      "byteOffset": 111920,
      "componentType": 5126,
      "count": 6949,
      "max": [
        1,
        1,
        1,
        1
      ],
      "min": [
        1,
        1,
        1,
        1
      ],
      "type": "VEC4"
    },
    {
      "bufferView": 1,
      "byteOffset": 184,
      "componentType": 5126,
      "count": 6949,
      "max": [
        2.4387679100036621,
        1.9396182298660278
      ],
      "min": [
        -1.4387679100036621,
        -0.93961846828460693
      ],
      "type": "VEC2"
    },
    {
      "bufferView": 0,
      "byteOffset": 144,
      "componentType": 5125,
      "count": 25710,
      "max": [
        6948
      ],
      "min": [
        0
      ],
      "type": "SCALAR"
    },
    {
      "bufferView": 2,
      "byteOffset": 167328,
      "componentType": 5126,
      "count": 1808,
      "max": [
        3.7453231811523438,
        0.14817579090595245,
        44.005687713623047
      ],
      "min": [
        -3.7453155517578125,
        -0.14766776561737061,
        43.863563537597656
      ],
      "type": "VEC3"
    },
    {
      "bufferView": 2,
      "byteOffset": 189024,
      "componentType": 5126,
      "count": 1808,
      "max": [
        1,
        1,
        1
      ],
      "min": [
        -1,
        -1,
        -1
      ],
      "type": "VEC3"
    },
    {
      "bufferView": 3,
      "byteOffset": 223104,
      "componentType": 5126,
      "count": 1808,
      "max": [
        1,
        1,
        7.4848216513601074e-09,
        1
      ],
      "min": [
        -1,
        -1,
        -8.1021260811553475e-09,
        -1
      ],
      "type": "VEC4"
    },
    {
      "bufferView": 3,
      "byteOffset": 252032,
      "componentType": 5126,
      "count": 1808,
      "max": [
        1,
        1,
        1,
        1
      ],
      "min": [
        1,
        1,
        1,
        1
      ],
      "type": "VEC4"
    },
    {
      "bufferView": 1,
      "byteOffset": 55776,
      "componentType": 5126,
      "count": 1808,
      "max": [
        0.9995189905166626,
        1
      ],
      "min": [
        -0.017857193946838379,
        0
      ],
      "type": "VEC2"
    },
    {
      "bufferView": 0,
      "byteOffset": 102984,
      "componentType": 5125,
      "count": 3684,
      "max": [
        1807
      ],
      "min": [
        0
      ],
      "type": "SCALAR"
    },
    {
      "bufferView": 2,
      "byteOffset": 210720,
      "componentType": 5126,
      "count": 336,
      "max": [
        3.6196136474609375,
        0.02362518385052681,
        43.919601440429688
      ],
      "min": [
        -3.6196193695068359,
        -0.023620728403329849,
        16.346197128295898
      ],
      "type": "VEC3"
    },
    {
      "bufferView": 2,
      "byteOffset": 214752,
      "componentType": 5126,
      "count": 336,
      "max": [
        1,
        0.99341100454330444,
        1
      ],
      "min": [
        -0.99342632293701172,
        -0.99341088533401489,
        -1
      ],
      "type": "VEC3"
    },
    {
      "bufferView": 3,
      "byteOffset": 280960,
      "componentType": 5126,
      "count": 336,
      "max": [
        0.99341100454330444,
        0.99342632293701172,
        1.0047079609790989e-14,
        1
      ],
      "min": [
        0,
        -0.99342632293701172,
        -1.5071219961046087e-14,
        -1
      ],
      "type": "VEC4"
    },
    {
      "bufferView": 3,
      "byteOffset": 286336,
      "componentType": 5126,
      "count": 336,
      "max": [
        1,
        1,
        1,
        1
      ],
      "min": [
        1,
        1,
        1,
        1
      ],
      "type": "VEC4"
    },
    {
      "bufferView": 1,
      "byteOffset": 70240,
      "componentType": 5126,
      "count": 336,
      "max": [
        7.2213759422302246,
        21.704076766967773
      ],
      "min": [
        -0.017854224890470505,
        -5.869328498840332
      ],
      "type": "VEC2"
    },
    {
      "bufferView": 0,
      "byteOffset": 117720,
      "componentType": 5125,
      "count": 648,
      "max": [
        335
      ],
      "min": [
        0
      ],
      "type": "SCALAR"
    }
  ],
  "asset": {
    "extras": {
      "author": "Homak (https://sketchfab.com/edudias)",
      "license": "CC-BY-4.0 (http://creativecommons.org/licenses/by/4.0/)",
      "source": "https://sketchfab.com/3d-models/pendente-mantra-30500-4b3ae3b8744d429a8a4aa1b5b5cb4f7c",
      "title": "Pendente Mantra 30500"
    },
    "generator": "Sketchfab-5.80.0",
    "version": "2.0"
  },
  "bufferViews": [
    {
      "buffer": 0,
      "byteLength": 120312,
      "byteOffset": 0,
      "name": "floatBufferViews",
      "target": 34963
    },
    {
      "buffer": 0,
      "byteLength": 72928,
      "byteOffset": 120312,
      "byteStride": 8,
      "name": "floatBufferViews",
      "target": 34962
    },
    {
      "buffer": 0,
      "byteLength": 218784,
      "byteOffset": 193240,
      "byteStride": 12,
      "name": "floatBufferViews",
      "target": 34962
    },
    {
      "buffer": 0,
      "byteLength": 291712,
      "byteOffset": 412024,
      "byteStride": 16,
      "name": "floatBufferViews",
      "target": 34962
    }
  ],
  "buffers": [
    {
      "byteLength": 703736,
      "uri": "scene.bin"
    }
  ],
  "images": [
    {
      "uri": "textures/Madeira_baseColor.jpeg"
    }
  ],
  "materials": [
    {
      "doubleSided": true,
      "emissiveFactor": [
        0,
        0,
        0
      ],
      "name": "Madeira",
      "pbrMetallicRoughness": {
        "baseColorFactor": [
          0.72732469512195119,
          0.72732469512195119,
          0.72732469512195119,
          1
        ],
        "baseColorTexture": {
          "index": 0,
          "texCoord": 0
        },
        "metallicFactor": 0,
        "roughnessFactor": 0.22122713414634146
      }
    },
    {
      "doubleSided": true,
      "emissiveFactor": [
        1,
        1,
        1
      ],
      "name": "Plastico",
      "pbrMetallicRoughness": {
        "baseColorFactor": [
          1,
          1,
          1,
          1
        ],
        "metallicFactor": 0,
        "roughnessFactor": 0.59999999999999998
      }
    },
    {
      "doubleSided": true,
      "emissiveFactor": [
        0,
        0,
        0
      ],
      "name": "Cromado",
      "pbrMetallicRoughness": {
        "baseColorFactor": [
          0.45941442845319658,
          0.45941442845319658,
          0.45941442845319658,
          1
        ],
        "metallicFactor": 1,
        "roughnessFactor": 0.59999999999999998
      }
    },
    {
      "doubleSided": true,
      "emissiveFactor": [
        0,
        0,
        0
      ],
      "name": "Fio2",
      "pbrMetallicRoughness": {
        "baseColorFactor": [
          0.04999488099145083,
          0.04999488099145083,
          0.04999488099145083,
          1
        ],
        "metallicFactor": 0.28220274390243905,
        "roughnessFactor": 0.59999999999999998
      }
    }
  ],
  "meshes": [
    {
      "primitives": [
        {
          "attributes": {
            "COLOR_0": 3,
            "NORMAL": 1,
            "POSITION": 0,
            "TANGENT": 2,
            "TEXCOORD_0": 4
          },
          "indices": 5,
          "material": 1,
          "mode": 4
        }
      ]
    },
    {
      "primitives": [
        {
          "attributes": {
            "COLOR_0": 9,
            "NORMAL": 7,
            "POSITION": 6,
            "TANGENT": 8,
            "TEXCOORD_0": 10
          },
          "indices": 11,
          "material": 0,
          "mode": 4
        }
      ]
    },
    {
      "primitives": [
        {
          "attributes": {
            "COLOR_0": 15,
            "NORMAL": 13,
            "POSITION": 12,
            "TANGENT": 14,
            "TEXCOORD_0": 16
          },
          "indices": 17,
          "material": 2,
          "mode": 4
        }
      ]
    },
    {
      "primitives": [
        {
          "attributes": {
            "COLOR_0": 21,
            "NORMAL": 19,
            "POSITION": 18,
            "TANGENT": 20,
            "TEXCOORD_0": 22
          },
          "indices": 23,
          "material": 3,
          "mode": 4
        }
      ]
    }
  ],
  "nodes": [
    {
      "children": [
        1
      ],
      "name": "RootNode (gltf orientation matrix)",
      "rotation": [
        -0.70710678118654746,
        -0,
        -0,
        0.70710678118654757
      ]
    },
    {
      "children": [
        2
      ],
      "name": "RootNode (model correction matrix)"
    },
    {
      "children": [
        3
      ],
      "matrix": [
        1,
        0,
        0,
        0,
        0,
        1,
        0,
        0,
        0,
        0,
        1,
        0,
        0,
        -1.291978719564213e-06,
        29.557027816772461,
        1
      ],
      "name": "30500"
    },
    {
      "children": [
        4,
        5,
        6,
        7
      ],
      "matrix": [
        1,
        0,
        0,
        0,
        0,
        1,
        0,
        0,
        0,
        0,
        1,
        0,
        -0,
        1.291978719564213e-06,
        -29.557027816772461,
        1
      ],
      "name": "3DSMeshMatrix"
    },
    {
      "mesh": 0,
      "name": ""
    },
    {
      "mesh": 1,
      "name": ""
    },
    {
      "mesh": 2,
      "name": ""
    },
    {
      "mesh": 3,
      "name": ""
    }
  ],
  "samplers": [
    {
      "magFilter": 9729,
      "minFilter": 9987,
      "wrapS": 10497,
      "wrapT": 10497
    }
  ],
  "scene": 0,
  "scenes": [
    {
      "name": "OSG_Scene",
      "nodes": [
        0
      ]
    }
  ],
  "textures": [
    {
      "sampler": 0,
      "source": 0
    }
  ]
}

