{
  "accessors": [
    {
      "bufferView": 2,
      "componentType": 5126,
      "count": 65532,
      "max": [
        49.987648010253906,
        42.298267364501953,
        9.4288387298583984
      ],
      "min": [
        0.28417205810546875,
        0.47364044189453125,
        0
      ],
      "type": "VEC3"
    },
    {
      "bufferView": 2,
      "byteOffset": 786384,
      "componentType": 5126,
      "count": 65532,
      "max": [
        0.99999910593032837,
        0.99992305040359497,
        0.99999701976776123
      ],
      "min": [
        -0.99999231100082397,
        -0.99997162818908691,
        -0.998332679271698
      ],
      "type": "VEC3"
    },
    {
      "bufferView": 3,
      "componentType": 5126,
      "count": 65532,
      "max": [
        0.99998140335083008,
        0.99999320507049561,
        0.99997764825820923,
        1
      ],
      "min": [
        -0.99999141693115234,
        -0.99999570846557617,
        -0.99999779462814331,
        -1
      ],
      "type": "VEC4"
    },
    {
      "bufferView": 1,
      "componentType": 5126,
      "count": 65532,
      "max": [
        0.99609202146530151,
        0.99976599216461182
      ],
      "min": [
        0.0050380001775920391,
        0.017477000132203102
      ],
      "type": "VEC2"
    },
    {
      "bufferView": 0,
      "componentType": 5125,
      "count": 316065,
      "max": [
        65531
      ],
      "min": [
        0
      ],
      "type": "SCALAR"
    },
    {
      "bufferView": 2,
      "byteOffset": 1572768,
      "componentType": 5126,
      "count": 65532,
      "max": [
        51.813385009765625,
        43.013954162597656,
        10.04930305480957
      ],
      "min": [
        16.645135879516602,
        15.348189353942871,
        1.5964775085449219
      ],
      "type": "VEC3"
    },
    {
      "bufferView": 2,
      "byteOffset": 2359152,
      "componentType": 5126,
      "count": 65532,
      "max": [
        0.99999701976776123,
        0.99999040365219116,
        0.99999243021011353
      ],
      "min": [
        -0.99999380111694336,
        -0.99999862909317017,
        -0.99695980548858643
      ],
      "type": "VEC3"
    },
    {
      "bufferView": 3,
      "byteOffset": 1048512,
      "componentType": 5126,
      "count": 65532,
      "max": [
        0.99999809265136719,
        0.99996680021286011,
        0.99996447563171387,
        1
      ],
      "min": [
        -0.99993360042572021,
        -0.9999845027923584,
        -0.99997252225875854,
        -1
      ],
      "type": "VEC4"
    },
    {
      "bufferView": 1,
      "byteOffset": 524256,
      "componentType": 5126,
      "count": 65532,
      "max": [
        0.99517601728439331,
        0.9998670220375061
      ],
      "min": [
        0.014964999631047249,
        0.0036589999217540026
      ],
      "type": "VEC2"
    },
    {
      "bufferView": 0,
      "byteOffset": 1264260,
      "componentType": 5125,
      "count": 326430,
      "max": [
        65531
      ],
      "min": [
        0
      ],
      "type": "SCALAR"
    },
    {
      "bufferView": 2,
      "byteOffset": 3145536,
      "componentType": 5126,
      "count": 65532,
      "max": [
        38.493888854980469,
        43.019645690917969,
        13.491538047790527
      ],
      "min": [
        0,
        0,
        0.21773910522460938
      ],
      "type": "VEC3"
    },
    {
      "bufferView": 2,
      "byteOffset": 3931920,
      "componentType": 5126,
      "count": 65532,
      "max": [
        0.99997389316558838,
        0.99998253583908081,
        0.99999922513961792
      ],
      "min": [
        -0.99994564056396484,
        -0.99999874830245972,
        -0.99901473522186279
      ],
      "type": "VEC3"
    },
    {
      "bufferView": 3,
      "byteOffset": 2097024,
      "componentType": 5126,
      "count": 65532,
      "max": [
        0.99997603893280029,
        0.99999570846557617,
        0.99998897314071655,
        1
      ],
      "min": [
        -0.99995183944702148,
        -0.99999099969863892,
        -0.9999803900718689,
        -1
      ],
      "type": "VEC4"
    },
    {
      "bufferView": 1,
      "byteOffset": 1048512,
      "componentType": 5126,
      "count": 65532,
      "max": [
        0.9964900016784668,
        0.99963802099227905
      ],
      "min": [
        0.0019389999797567725,
        0.0040339999832212925
      ],
      "type": "VEC2"
    },
    {
      "bufferView": 0,
      "byteOffset": 2569980,
      "componentType": 5125,
      "count": 305820,
      "max": [
        65531
      ],
      "min": [
        0
      ],
      "type": "SCALAR"
    },
    {
      "bufferView": 2,
      "byteOffset": 4718304,
      "componentType": 5126,
      "count": 65532,
      "max": [
        51.036338806152344,
        42.478324890136719,
        13.559147834777832
      ],
      "min": [
        0.56334495544433594,
        0.48558235168457031,
        1.6780357360839844
      ],
      "type": "VEC3"
    },
    {
      "bufferView": 2,
      "byteOffset": 5504688,
      "componentType": 5126,
      "count": 65532,
      "max": [
        0.99999827146530151,
        0.99998903274536133,
        1
      ],
      "min": [
        -0.99998939037322998,
        -0.99998360872268677,
        -0.99976372718811035
      ],
      "type": "VEC3"
    },
    {
      "bufferView": 3,
      "byteOffset": 3145536,
      "componentType": 5126,
      "count": 65532,
      "max": [
        0.9999958872795105,
        0.99999415874481201,
        0.9999803900718689,
        1
      ],
      "min": [
        -0.99991047382354736,
        -0.99998730421066284,
        -0.99999779462814331,
        -1
      ],
      "type": "VEC4"
    },
    {
      "bufferView": 1,
      "byteOffset": 1572768,
      "componentType": 5126,
      "count": 65532,
      "max": [
        0.9957200288772583,
        0.99958199262619019
      ],
      "min": [
        0.0046620001085102558,
        0.0032659999560564756
      ],
      "type": "VEC2"
    },
    {
      "bufferView": 0,
      "byteOffset": 3793260,
      "componentType": 5125,
      "count": 289626,
      "max": [
        65531
      ],
      "min": [
        0
      ],
      "type": "SCALAR"
    },
    {
      "bufferView": 2,
      "byteOffset": 6291072,
      "componentType": 5126,
      "count": 22433,
      "max": [
        51.448867797851562,
        42.736465454101562,
        13.606733322143555
      ],
      "min": [
        0.27105236053466797,
        0.075407028198242188,
        1.6851215362548828
      ],
      "type": "VEC3"
    },
    {
      "bufferView": 2,
      "byteOffset": 6560268,
      "componentType": 5126,
      "count": 22433,
      "max": [
        0.99994641542434692,
        0.99994981288909912,
        1
      ],
      "min": [
        -0.99994564056396484,
        -0.99986761808395386,
        -0.99976372718811035
      ],
      "type": "VEC3"
    },
    {
      "bufferView": 3,
      "byteOffset": 4194048,
      "componentType": 5126,
      "count": 22433,
      "max": [
        0.99992626905441284,
        0.9993254542350769,
        0.99994534254074097,
        1
      ],
      "min": [
        -0.99996525049209595,
        -0.99996870756149292,
        -0.99993628263473511,
        -1
      ],
      "type": "VEC4"
    },
    {
      "bufferView": 1,
      "byteOffset": 2097024,
      "componentType": 5126,
      "count": 22433,
      "max": [
        0.99157500267028809,
        0.999580979347229
      ],
      "min": [
        0.0051959999836981297,
        0.0084739997982978821
      ],
      "type": "VEC2"
    },
    {
      "bufferView": 0,
      "byteOffset": 4951764,
      "componentType": 5125,
      "count": 96408,
      "max": [
        22432
      ],
      "min": [
        0
      ],
      "type": "SCALAR"
    }
  ],
  "asset": {
    "extras": {
      "author": "bg3d (https://sketchfab.com/bg3d)",
      "license": "CC-BY-4.0 (http://creativecommons.org/licenses/by/4.0/)",
      "source": "https://sketchfab.com/models/c08c6c62505a4b13b9b9ff146cd01109",
      "title": "Neighbourhood"
    },
    "generator": "Sketchfab-3.18.7",
    "version": "2.0"
  },
  "bufferViews": [
    {
      "buffer": 0,
      "byteLength": 5337396,
      "byteOffset": 0,
      "name": "floatBufferViews",
      "target": 34963
    },
    {
      "buffer": 0,
      "byteLength": 2276488,
      "byteOffset": 5337396,
      "byteStride": 8,
      "name": "floatBufferViews",
      "target": 34962
    },
    {
      "buffer": 0,
      "byteLength": 6829464,
      "byteOffset": 7613884,
      "byteStride": 12,
      "name": "floatBufferViews",
      "target": 34962
    },
    {
      "buffer": 0,
      "byteLength": 4552976,
      "byteOffset": 14443348,
      "byteStride": 16,
      "name": "floatBufferViews",
      "target": 34962
    }
  ],
  "buffers": [
    {
      "byteLength": 18996324,
      "uri": "scene.bin"
    }
  ],
  "extensionsUsed": [
    "KHR_materials_unlit"
  ],
  "images": [
    {
      "uri": "textures/material_0_baseColor.jpg"
    }
  ],
  "materials": [
    {
      "doubleSided": true,
      "emissiveFactor": [
        0,
        0,
        0
      ],
      "extensions": {
        "KHR_materials_unlit": {}
      },
      "name": "material_0",
      "pbrMetallicRoughness": {
        "baseColorFactor": [
          1,
          1,
          1,
          1
        ],
        "baseColorTexture": {
          "index": 0,
          "texCoord": 0
        },
        "metallicFactor": 0,
        "roughnessFactor": 1
      }
    }
  ],
  "meshes": [
    {
      "primitives": [
        {
          "attributes": {
            "NORMAL": 1,
            "POSITION": 0,
            "TANGENT": 2,
            "TEXCOORD_0": 3
          },
          "indices": 4,
          "material": 0,
          "mode": 4
        }
      ]
    },
    {
      "primitives": [
        {
          "attributes": {
            "NORMAL": 6,
            "POSITION": 5,
            "TANGENT": 7,
            "TEXCOORD_0": 8
          },
          "indices": 9,
          "material": 0,
          "mode": 4
        }
      ]
    },
    {
      "primitives": [
        {
          "attributes": {
            "NORMAL": 11,
            "POSITION": 10,
            "TANGENT": 12,
            "TEXCOORD_0": 13
          },
          "indices": 14,
          "material": 0,
          "mode": 4
        }
      ]
    },
    {
      "primitives": [
        {
          "attributes": {
            "NORMAL": 16,
            "POSITION": 15,
            "TANGENT": 17,
            "TEXCOORD_0": 18
          },
          "indices": 19,
          "material": 0,
          "mode": 4
        }
      ]
    },
    {
      "primitives": [
        {
          "attributes": {
            "NORMAL": 21,
            "POSITION": 20,
            "TANGENT": 22,
            "TEXCOORD_0": 23
          },
          "indices": 24,
          "material": 0,
          "mode": 4
        }
      ]
    }
  ],
  "nodes": [
    {
      "children": [
        1
      ],
      "name": "RootNode (gltf orientation matrix)",
      "rotation": [
        -0.70710678118654746,
        -0,
        -0,
        0.70710678118654757
      ]
    },
    {
      "children": [
        2
      ],
      "matrix": [
        0.99891650676727295,
        0.0053116627968847752,
        0.046233613044023514,
        0,
        0,
        0.99346506595611572,
        -0.11413668841123581,
        0,
        -0.046537734568119049,
        0.11401302367448807,
        0.99238866567611694,
        0,
        -0.9101099967956543,
        2.1827809810638428,
        -0.96801877021789551,
        1
      ],
      "name": "RootNode (model correction matrix)"
    },
    {
      "children": [
        3,
        4,
        5,
        6,
        7
      ],
      "matrix": [
        1,
        0,
        0,
        0,
        0,
        1,
        0,
        0,
        0,
        0,
        1,
        0,
        -10.540281295776367,
        -22.43858528137207,
        -26.717510223388672,
        1
      ],
      "name": "house.obj.cleaner.gles"
    },
    {
      "mesh": 0,
      "name": ""
    },
    {
      "mesh": 1,
      "name": ""
    },
    {
      "mesh": 2,
      "name": ""
    },
    {
      "mesh": 3,
      "name": ""
    },
    {
      "mesh": 4,
      "name": ""
    }
  ],
  "samplers": [
    {
      "magFilter": 9729,
      "minFilter": 9987,
      "wrapS": 10497,
      "wrapT": 10497
    }
  ],
  "scene": 0,
  "scenes": [
    {
      "name": "OSG_Scene",
      "nodes": [
        0
      ]
    }
  ],
  "textures": [
    {
      "sampler": 0,
      "source": 0
    }
  ]
}

